<svg width="24" height="24" viewBox="0 0 24 24" fill="none" xmlns="http://www.w3.org/2000/svg">
<g clip-path="url(#clip0_3_127719)">
<path d="M22.485 10.9753L12 17.2673L1.515 10.9753C1.28758 10.8389 1.01526 10.7983 0.757962 10.8627C0.500662 10.927 0.279453 11.0909 0.143 11.3183C0.00654566 11.5457 -0.0339759 11.818 0.030349 12.0753C0.094674 12.3326 0.258576 12.5539 0.486 12.6903L11.486 19.2903C11.6415 19.3837 11.8196 19.4331 12.001 19.4331C12.1824 19.4331 12.3605 19.3837 12.516 19.2903L23.516 12.6903C23.7434 12.5539 23.9073 12.3326 23.9717 12.0753C24.036 11.818 23.9955 11.5457 23.859 11.3183C23.7225 11.0909 23.5013 10.927 23.244 10.8627C22.9867 10.7983 22.7144 10.8389 22.487 10.9753H22.485Z" fill="#374957"/>
<path d="M22.485 15.5428L12 21.8338L1.515 15.5428C1.40239 15.4753 1.27757 15.4305 1.14768 15.4112C1.01779 15.3919 0.885361 15.3983 0.757959 15.4302C0.630557 15.462 0.510676 15.5187 0.405161 15.5968C0.299645 15.675 0.210562 15.7732 0.142997 15.8858C0.0754315 15.9984 0.0307078 16.1233 0.0113792 16.2531C-0.00794938 16.383 -0.00150444 16.5155 0.0303461 16.6429C0.094671 16.9002 0.258573 17.1214 0.485997 17.2578L11.486 23.8579C11.6415 23.9513 11.8196 24.0007 12.001 24.0007C12.1824 24.0007 12.3605 23.9513 12.516 23.8579L23.516 17.2578C23.7434 17.1214 23.9073 16.9002 23.9716 16.6429C24.036 16.3856 23.9955 16.1133 23.859 15.8858C23.7225 15.6584 23.5013 15.4945 23.244 15.4302C22.9867 15.3658 22.7144 15.4064 22.487 15.5428H22.485Z" fill="#374957"/>
<path d="M0.484684 8.35741L10.4687 14.3484C10.9309 14.6265 11.4602 14.7734 11.9997 14.7734C12.5391 14.7734 13.0684 14.6265 13.5307 14.3484L23.5147 8.35741C23.6625 8.2685 23.7849 8.14286 23.8698 7.99269C23.9547 7.84252 23.9994 7.67293 23.9994 7.50041C23.9994 7.32788 23.9547 7.1583 23.8698 7.00813C23.7849 6.85795 23.6625 6.73231 23.5147 6.64341L13.5307 0.652407C13.0683 0.374636 12.5391 0.22789 11.9997 0.22789C11.4603 0.22789 10.9311 0.374636 10.4687 0.652407L0.484684 6.64341C0.336831 6.73231 0.214494 6.85795 0.129564 7.00813C0.0446343 7.1583 0 7.32788 0 7.50041C0 7.67293 0.0446343 7.84252 0.129564 7.99269C0.214494 8.14286 0.336831 8.2685 0.484684 8.35741Z" fill="#374957"/>
</g>
<defs>
<clipPath id="clip0_3_127719">
<rect width="24" height="24" fill="white"/>
</clipPath>
</defs>
</svg>
