<svg width="24" height="24" viewBox="0 0 24 24" fill="none" xmlns="http://www.w3.org/2000/svg">
<g clip-path="url(#clip0_3_127002)">
<path d="M0 8.99994V17.9999C0.00158786 19.3255 0.528882 20.5964 1.46622 21.5337C2.40356 22.4711 3.67441 22.9984 5 22.9999H19C20.3256 22.9984 21.5964 22.4711 22.5338 21.5337C23.4711 20.5964 23.9984 19.3255 24 17.9999V8.99994H0ZM14 18.9999H6C5.73478 18.9999 5.48043 18.8946 5.29289 18.707C5.10536 18.5195 5 18.2652 5 17.9999C5 17.7347 5.10536 17.4804 5.29289 17.2928C5.48043 17.1053 5.73478 16.9999 6 16.9999H14C14.2652 16.9999 14.5196 17.1053 14.7071 17.2928C14.8946 17.4804 15 17.7347 15 17.9999C15 18.2652 14.8946 18.5195 14.7071 18.707C14.5196 18.8946 14.2652 18.9999 14 18.9999ZM18 14.9999H6C5.73478 14.9999 5.48043 14.8946 5.29289 14.707C5.10536 14.5195 5 14.2652 5 13.9999C5 13.7347 5.10536 13.4804 5.29289 13.2928C5.48043 13.1053 5.73478 12.9999 6 12.9999H18C18.2652 12.9999 18.5196 13.1053 18.7071 13.2928C18.8946 13.4804 19 13.7347 19 13.9999C19 14.2652 18.8946 14.5195 18.7071 14.707C18.5196 14.8946 18.2652 14.9999 18 14.9999ZM24 6.99994V5.99994C23.9984 4.67434 23.4711 3.4035 22.5338 2.46616C21.5964 1.52882 20.3256 1.00153 19 0.999939H5C3.67441 1.00153 2.40356 1.52882 1.46622 2.46616C0.528882 3.4035 0.00158786 4.67434 0 5.99994L0 6.99994H24ZM10 2.99994C10.1978 2.99994 10.3911 3.05859 10.5556 3.16847C10.72 3.27835 10.8482 3.43453 10.9239 3.61726C10.9996 3.79998 11.0194 4.00105 10.9808 4.19503C10.9422 4.38901 10.847 4.56719 10.7071 4.70705C10.5673 4.8469 10.3891 4.94214 10.1951 4.98072C10.0011 5.01931 9.80004 4.99951 9.61732 4.92382C9.43459 4.84813 9.27841 4.71996 9.16853 4.55551C9.05865 4.39106 9 4.19772 9 3.99994C9 3.73472 9.10536 3.48037 9.29289 3.29283C9.48043 3.1053 9.73478 2.99994 10 2.99994ZM7 2.99994C7.19778 2.99994 7.39112 3.05859 7.55557 3.16847C7.72002 3.27835 7.84819 3.43453 7.92388 3.61726C7.99957 3.79998 8.01937 4.00105 7.98079 4.19503C7.9422 4.38901 7.84696 4.56719 7.70711 4.70705C7.56725 4.8469 7.38907 4.94214 7.19509 4.98072C7.00111 5.01931 6.80004 4.99951 6.61732 4.92382C6.43459 4.84813 6.27841 4.71996 6.16853 4.55551C6.05865 4.39106 6 4.19772 6 3.99994C6 3.73472 6.10536 3.48037 6.29289 3.29283C6.48043 3.1053 6.73478 2.99994 7 2.99994ZM4 2.99994C4.19778 2.99994 4.39112 3.05859 4.55557 3.16847C4.72002 3.27835 4.84819 3.43453 4.92388 3.61726C4.99957 3.79998 5.01937 4.00105 4.98079 4.19503C4.9422 4.38901 4.84696 4.56719 4.70711 4.70705C4.56725 4.8469 4.38907 4.94214 4.19509 4.98072C4.00111 5.01931 3.80004 4.99951 3.61732 4.92382C3.43459 4.84813 3.27841 4.71996 3.16853 4.55551C3.05865 4.39106 3 4.19772 3 3.99994C3 3.73472 3.10536 3.48037 3.29289 3.29283C3.48043 3.1053 3.73478 2.99994 4 2.99994Z" fill="#374957"/>
</g>
<defs>
<clipPath id="clip0_3_127002">
<rect width="24" height="24" fill="white"/>
</clipPath>
</defs>
</svg>
