<svg width="49" height="20" viewBox="0 0 49 20" fill="none" xmlns="http://www.w3.org/2000/svg">
<path d="M2.48047 3V9.04H3.62047V3H5.52047V17H3.62047V10.9H2.48047V17H0.580469V4.86H0.280469L0.480469 3H2.48047ZM9.86031 15.14V7H11.7603V15.14H12.0603L12.2603 17H9.86031V16.22L9.36031 17H8.82031C8.20698 17 7.71365 16.8267 7.34031 16.48C6.98031 16.12 6.80031 15.6733 6.80031 15.14V8.86H6.32031L6.52031 7H8.70031V15.04C8.70031 15.1067 8.73365 15.14 8.80031 15.14H9.86031ZM12.8531 13.86L14.7531 14.06V15.04C14.7531 15.1067 14.7865 15.14 14.8531 15.14H15.6531C15.7198 15.14 15.7531 15.1067 15.7531 15.04V13.18L13.9731 12.42C13.7598 12.3267 13.5198 12.18 13.2531 11.98C12.9865 11.78 12.8531 11.4533 12.8531 11V8.78C12.8531 8.22 13.0265 7.77333 13.3731 7.44C13.7198 7.09333 14.1731 6.92 14.7331 6.92H15.7731C16.3331 6.92 16.7865 7.09333 17.1331 7.44C17.4798 7.77333 17.6531 8.22 17.6531 8.78V10.06L15.7531 9.86V8.88C15.7531 8.81333 15.7198 8.78 15.6531 8.78H14.8531C14.7865 8.78 14.7531 8.81333 14.7531 8.88V10.74L16.5331 11.5C16.7465 11.5933 16.9865 11.74 17.2531 11.94C17.5198 12.14 17.6531 12.4667 17.6531 12.92V15.14C17.6531 15.7 17.4798 16.1533 17.1331 16.5C16.7865 16.8333 16.3331 17 15.7731 17H14.7331C14.1731 17 13.7198 16.8333 13.3731 16.5C13.0265 16.1533 12.8531 15.7 12.8531 15.14V13.86ZM20.4586 4.34L20.6586 6.2H18.7586V4.34H20.4586ZM20.6586 7V17H18.7586V8.86H18.4586L18.6586 7H20.6586ZM23.8316 7V7.88L24.3716 7H25.7116V8.94H23.8316V17H21.9316V8.86H21.4516L21.6516 7H23.8316Z" fill="url(#paint0_linear_48_15)"/>
<mask id="path-2-outside-1_48_15" maskUnits="userSpaceOnUse" x="26" y="2" width="24" height="19" fill="black">
<rect fill="white" x="26" y="2" width="24" height="19"/>
<path d="M27.6996 17.14V4.86H27.3996L27.5996 3H30.7596C31.3196 3 31.7729 3.17333 32.1196 3.52C32.4663 3.85333 32.6396 4.3 32.6396 4.86V9.06C32.6396 9.24667 32.6129 9.42667 32.5596 9.6C32.8796 9.94667 33.0396 10.3867 33.0396 10.92V15.28C33.0396 15.84 32.8263 16.2933 32.3996 16.64C31.9863 16.9733 31.4996 17.14 30.9396 17.14H27.6996ZM30.6396 4.86H29.5996V9.06H30.6396C30.7063 9.06 30.7396 9.02667 30.7396 8.96V4.96C30.7396 4.89333 30.7063 4.86 30.6396 4.86ZM31.0396 10.92H29.5996V15.28H31.0396C31.1063 15.28 31.1396 15.2467 31.1396 15.18V11.02C31.1396 10.9533 31.1063 10.92 31.0396 10.92ZM36.1324 3L36.1524 15.14H36.6524L36.8524 17H34.2524L34.2324 4.86H33.8324L34.0324 3H36.1324ZM40.6574 8.88C40.6574 8.81333 40.6241 8.78 40.5574 8.78H39.3574C39.2908 8.78 39.2574 8.81333 39.2574 8.88V15.12C39.2574 15.1867 39.2908 15.22 39.3574 15.22H40.5574C40.6241 15.22 40.6574 15.1933 40.6574 15.14V8.88ZM37.3574 15.22V8.78C37.3574 8.22 37.5308 7.77333 37.8774 7.44C38.2241 7.09333 38.6774 6.92 39.2374 6.92H40.6774C41.2374 6.92 41.6908 7.09333 42.0374 7.44C42.3841 7.77333 42.5574 8.22 42.5574 8.78V15.22C42.5574 15.78 42.3841 16.2333 42.0374 16.58C41.6908 16.9133 41.2374 17.08 40.6774 17.08H39.2374C38.6774 17.08 38.2241 16.9133 37.8774 16.58C37.5308 16.2333 37.3574 15.78 37.3574 15.22ZM45.4488 17.4V17.84C45.4488 17.9067 45.4822 17.94 45.5488 17.94H46.5088C46.5755 17.94 46.6088 17.9067 46.6088 17.84V16.22L46.1088 17H45.5688C44.9555 17 44.4622 16.8267 44.0888 16.48C43.7288 16.12 43.5488 15.6733 43.5488 15.14V8.86C43.5488 8.31333 43.7288 7.86667 44.0888 7.52C44.4622 7.17333 44.9555 7 45.5688 7H45.6488C46.0088 7 46.3288 7.08667 46.6088 7.26V7H48.5088V17.8C48.5088 18.36 48.3355 18.8067 47.9888 19.14C47.6422 19.4867 47.1888 19.66 46.6288 19.66H45.4288C44.8688 19.66 44.4155 19.4867 44.0688 19.14C43.7222 18.8067 43.5488 18.36 43.5488 17.8V17.4H45.4488ZM45.5488 8.86C45.4822 8.86 45.4488 8.89333 45.4488 8.96V15.04C45.4488 15.1067 45.4822 15.14 45.5488 15.14H46.6088V8.86H45.5488Z"/>
</mask>
<path d="M27.6996 17.14H27.1996V17.64H27.6996V17.14ZM27.6996 4.86H28.1996V4.36H27.6996V4.86ZM27.3996 4.86L26.9025 4.80654L26.843 5.36H27.3996V4.86ZM27.5996 3V2.5H27.1505L27.1025 2.94654L27.5996 3ZM32.1196 3.52L31.766 3.87362L31.7731 3.88042L32.1196 3.52ZM32.5596 9.6L32.0817 9.45296L31.9971 9.72782L32.1922 9.93914L32.5596 9.6ZM32.3996 16.64L32.7135 17.0292L32.7149 17.0281L32.3996 16.64ZM29.5996 4.86V4.36H29.0996V4.86H29.5996ZM29.5996 9.06H29.0996V9.56H29.5996V9.06ZM29.5996 10.92V10.42H29.0996V10.92H29.5996ZM29.5996 15.28H29.0996V15.78H29.5996V15.28ZM28.1996 17.14V4.86H27.1996V17.14H28.1996ZM27.6996 4.36H27.3996V5.36H27.6996V4.36ZM27.8967 4.91345L28.0967 3.05345L27.1025 2.94654L26.9025 4.80654L27.8967 4.91345ZM27.5996 3.5H30.7596V2.5H27.5996V3.5ZM30.7596 3.5C31.2075 3.5 31.5267 3.63422 31.7661 3.87355L32.4732 3.16645C32.0192 2.71245 31.4317 2.5 30.7596 2.5V3.5ZM31.7731 3.88042C32.0054 4.10386 32.1396 4.4117 32.1396 4.86H33.1396C33.1396 4.1883 32.9271 3.6028 32.4662 3.15958L31.7731 3.88042ZM32.1396 4.86V9.06H33.1396V4.86H32.1396ZM32.1396 9.06C32.1396 9.1983 32.12 9.32865 32.0817 9.45296L33.0375 9.74704C33.1059 9.52468 33.1396 9.29503 33.1396 9.06H32.1396ZM32.1922 9.93914C32.4157 10.1812 32.5396 10.4947 32.5396 10.92H33.5396C33.5396 10.2786 33.3435 9.71209 32.927 9.26086L32.1922 9.93914ZM32.5396 10.92V15.28H33.5396V10.92H32.5396ZM32.5396 15.28C32.5396 15.6927 32.3916 16.0023 32.0843 16.2519L32.7149 17.0281C33.2609 16.5844 33.5396 15.9873 33.5396 15.28H32.5396ZM32.0857 16.2508C31.7664 16.5083 31.3921 16.64 30.9396 16.64V17.64C31.6071 17.64 32.2062 17.4383 32.7135 17.0292L32.0857 16.2508ZM30.9396 16.64H27.6996V17.64H30.9396V16.64ZM30.6396 4.36H29.5996V5.36H30.6396V4.36ZM29.0996 4.86V9.06H30.0996V4.86H29.0996ZM29.5996 9.56H30.6396V8.56H29.5996V9.56ZM30.6396 9.56C30.75 9.56 30.9247 9.53206 31.0682 9.38855C31.2117 9.24505 31.2396 9.07041 31.2396 8.96H30.2396C30.2396 8.91626 30.2509 8.79162 30.3611 8.68145C30.4712 8.57127 30.5959 8.56 30.6396 8.56V9.56ZM31.2396 8.96V4.96H30.2396V8.96H31.2396ZM31.2396 4.96C31.2396 4.84959 31.2117 4.67495 31.0682 4.53145C30.9247 4.38794 30.75 4.36 30.6396 4.36V5.36C30.5959 5.36 30.4712 5.34873 30.3611 5.23855C30.2509 5.12838 30.2396 5.00374 30.2396 4.96H31.2396ZM31.0396 10.42H29.5996V11.42H31.0396V10.42ZM29.0996 10.92V15.28H30.0996V10.92H29.0996ZM29.5996 15.78H31.0396V14.78H29.5996V15.78ZM31.0396 15.78C31.15 15.78 31.3247 15.7521 31.4682 15.6086C31.6117 15.465 31.6396 15.2904 31.6396 15.18H30.6396C30.6396 15.1363 30.6509 15.0116 30.7611 14.9014C30.8712 14.7913 30.9959 14.78 31.0396 14.78V15.78ZM31.6396 15.18V11.02H30.6396V15.18H31.6396ZM31.6396 11.02C31.6396 10.9096 31.6117 10.735 31.4682 10.5914C31.3247 10.4479 31.15 10.42 31.0396 10.42V11.42C30.9959 11.42 30.8712 11.4087 30.7611 11.2986C30.6509 11.1884 30.6396 11.0637 30.6396 11.02H31.6396ZM36.1324 3L36.6324 2.99918L36.6316 2.5H36.1324V3ZM36.1524 15.14L35.6524 15.1408L35.6532 15.64H36.1524V15.14ZM36.6524 15.14L37.1496 15.0865L37.1015 14.64H36.6524V15.14ZM36.8524 17V17.5H37.4091L37.3496 16.9465L36.8524 17ZM34.2524 17L33.7524 17.0008L33.7532 17.5H34.2524V17ZM34.2324 4.86L34.7324 4.85918L34.7316 4.36H34.2324V4.86ZM33.8324 4.86L33.3353 4.80654L33.2758 5.36H33.8324V4.86ZM34.0324 3V2.5H33.5833L33.5353 2.94654L34.0324 3ZM35.6324 3.00082L35.6524 15.1408L36.6524 15.1392L36.6324 2.99918L35.6324 3.00082ZM36.1524 15.64H36.6524V14.64H36.1524V15.64ZM36.1553 15.1935L36.3553 17.0535L37.3496 16.9465L37.1496 15.0865L36.1553 15.1935ZM36.8524 16.5H34.2524V17.5H36.8524V16.5ZM34.7524 16.9992L34.7324 4.85918L33.7324 4.86082L33.7524 17.0008L34.7524 16.9992ZM34.2324 4.36H33.8324V5.36H34.2324V4.36ZM34.3296 4.91345L34.5296 3.05345L33.5353 2.94654L33.3353 4.80654L34.3296 4.91345ZM34.0324 3.5H36.1324V2.5H34.0324V3.5ZM37.8774 7.44L38.224 7.80049L38.231 7.79355L37.8774 7.44ZM42.0374 7.44L41.6838 7.79362L41.6909 7.80042L42.0374 7.44ZM42.0374 16.58L42.384 16.9405L42.391 16.9336L42.0374 16.58ZM37.8774 16.58L37.5238 16.9336L37.5309 16.9404L37.8774 16.58ZM41.1574 8.88C41.1574 8.76959 41.1295 8.59495 40.986 8.45145C40.8425 8.30794 40.6678 8.28 40.5574 8.28V9.28C40.5137 9.28 40.389 9.26873 40.2789 9.15855C40.1687 9.04838 40.1574 8.92374 40.1574 8.88H41.1574ZM40.5574 8.28H39.3574V9.28H40.5574V8.28ZM39.3574 8.28C39.247 8.28 39.0724 8.30794 38.9289 8.45145C38.7854 8.59495 38.7574 8.76959 38.7574 8.88H39.7574C39.7574 8.92374 39.7461 9.04838 39.636 9.15855C39.5258 9.26873 39.4012 9.28 39.3574 9.28V8.28ZM38.7574 8.88V15.12H39.7574V8.88H38.7574ZM38.7574 15.12C38.7574 15.2304 38.7854 15.405 38.9289 15.5486C39.0724 15.6921 39.247 15.72 39.3574 15.72V14.72C39.4012 14.72 39.5258 14.7313 39.636 14.8414C39.7461 14.9516 39.7574 15.0763 39.7574 15.12H38.7574ZM39.3574 15.72H40.5574V14.72H39.3574V15.72ZM40.5574 15.72C40.6442 15.72 40.8018 15.7048 40.9448 15.5904C41.1091 15.459 41.1574 15.277 41.1574 15.14H40.1574C40.1574 15.0563 40.1891 14.9143 40.3201 14.8096C40.4297 14.7218 40.5373 14.72 40.5574 14.72V15.72ZM41.1574 15.14V8.88H40.1574V15.14H41.1574ZM37.8574 15.22V8.78H36.8574V15.22H37.8574ZM37.8574 8.78C37.8574 8.3317 37.9916 8.02386 38.224 7.80042L37.5309 7.07958C37.0699 7.5228 36.8574 8.1083 36.8574 8.78H37.8574ZM38.231 7.79355C38.4703 7.55422 38.7895 7.42 39.2374 7.42V6.42C38.5653 6.42 37.9779 6.63245 37.5239 7.08645L38.231 7.79355ZM39.2374 7.42H40.6774V6.42H39.2374V7.42ZM40.6774 7.42C41.1253 7.42 41.4445 7.55422 41.6839 7.79355L42.391 7.08645C41.937 6.63245 41.3495 6.42 40.6774 6.42V7.42ZM41.6909 7.80042C41.9233 8.02386 42.0574 8.3317 42.0574 8.78H43.0574C43.0574 8.1083 42.8449 7.5228 42.384 7.07958L41.6909 7.80042ZM42.0574 8.78V15.22H43.0574V8.78H42.0574ZM42.0574 15.22C42.0574 15.6679 41.9232 15.9871 41.6839 16.2264L42.391 16.9336C42.845 16.4796 43.0574 15.8921 43.0574 15.22H42.0574ZM41.6909 16.2196C41.4526 16.4487 41.131 16.58 40.6774 16.58V17.58C41.3438 17.58 41.9289 17.378 42.384 16.9404L41.6909 16.2196ZM40.6774 16.58H39.2374V17.58H40.6774V16.58ZM39.2374 16.58C38.7838 16.58 38.4623 16.4487 38.224 16.2196L37.5309 16.9404C37.9859 17.378 38.571 17.58 39.2374 17.58V16.58ZM38.231 16.2264C37.9916 15.9871 37.8574 15.6679 37.8574 15.22H36.8574C36.8574 15.8921 37.0699 16.4796 37.5239 16.9336L38.231 16.2264ZM45.4488 17.4H45.9488V16.9H45.4488V17.4ZM46.6088 16.22H47.1088V14.5135L46.1879 15.9502L46.6088 16.22ZM46.1088 17V17.5H46.3822L46.5298 17.2698L46.1088 17ZM44.0888 16.48L43.7353 16.8336L43.7418 16.8401L43.7486 16.8464L44.0888 16.48ZM44.0888 7.52L43.7485 7.15354L43.742 7.15984L44.0888 7.52ZM46.6088 7.26L46.3457 7.68513L47.1088 8.15757V7.26H46.6088ZM46.6088 7V6.5H46.1088V7H46.6088ZM48.5088 7H49.0088V6.5H48.5088V7ZM47.9888 19.14L47.6422 18.7795L47.6353 18.7864L47.9888 19.14ZM44.0688 19.14L44.4224 18.7864L44.4154 18.7796L44.0688 19.14ZM43.5488 17.4V16.9H43.0488V17.4H43.5488ZM46.6088 15.14V15.64H47.1088V15.14H46.6088ZM46.6088 8.86H47.1088V8.36H46.6088V8.86ZM44.9488 17.4V17.84H45.9488V17.4H44.9488ZM44.9488 17.84C44.9488 17.9504 44.9768 18.125 45.1203 18.2686C45.2638 18.4121 45.4384 18.44 45.5488 18.44V17.44C45.5926 17.44 45.7172 17.4513 45.8274 17.5614C45.9376 17.6716 45.9488 17.7963 45.9488 17.84H44.9488ZM45.5488 18.44H46.5088V17.44H45.5488V18.44ZM46.5088 18.44C46.6192 18.44 46.7939 18.4121 46.9374 18.2686C47.0809 18.125 47.1088 17.9504 47.1088 17.84H46.1088C46.1088 17.7963 46.1201 17.6716 46.2303 17.5614C46.3404 17.4513 46.4651 17.44 46.5088 17.44V18.44ZM47.1088 17.84V16.22H46.1088V17.84H47.1088ZM46.1879 15.9502L45.6879 16.7302L46.5298 17.2698L47.0298 16.4898L46.1879 15.9502ZM46.1088 16.5H45.5688V17.5H46.1088V16.5ZM45.5688 16.5C45.0545 16.5 44.6917 16.3575 44.4291 16.1136L43.7486 16.8464C44.2326 17.2958 44.8565 17.5 45.5688 17.5V16.5ZM44.4424 16.1264C44.181 15.8651 44.0488 15.5477 44.0488 15.14H43.0488C43.0488 15.7989 43.2767 16.3749 43.7353 16.8336L44.4424 16.1264ZM44.0488 15.14V8.86H43.0488V15.14H44.0488ZM44.0488 8.86C44.0488 8.4351 44.1832 8.12321 44.4356 7.88016L43.742 7.15984C43.2744 7.61012 43.0488 8.19157 43.0488 8.86H44.0488ZM44.4291 7.8864C44.6917 7.64248 45.0545 7.5 45.5688 7.5V6.5C44.8565 6.5 44.2326 6.70419 43.7486 7.1536L44.4291 7.8864ZM45.5688 7.5H45.6488V6.5H45.5688V7.5ZM45.6488 7.5C45.9248 7.5 46.152 7.56526 46.3457 7.68513L46.872 6.83487C46.5056 6.60808 46.0928 6.5 45.6488 6.5V7.5ZM47.1088 7.26V7H46.1088V7.26H47.1088ZM46.6088 7.5H48.5088V6.5H46.6088V7.5ZM48.0088 7V17.8H49.0088V7H48.0088ZM48.0088 17.8C48.0088 18.2483 47.8747 18.5561 47.6423 18.7796L48.3354 19.5004C48.7963 19.0572 49.0088 18.4717 49.0088 17.8H48.0088ZM47.6353 18.7864C47.3959 19.0258 47.0767 19.16 46.6288 19.16V20.16C47.3009 20.16 47.8884 19.9476 48.3424 19.4936L47.6353 18.7864ZM46.6288 19.16H45.4288V20.16H46.6288V19.16ZM45.4288 19.16C44.9809 19.16 44.6617 19.0258 44.4224 18.7864L43.7153 19.4936C44.1693 19.9476 44.7567 20.16 45.4288 20.16V19.16ZM44.4154 18.7796C44.183 18.5561 44.0488 18.2483 44.0488 17.8H43.0488C43.0488 18.4717 43.2613 19.0572 43.7223 19.5004L44.4154 18.7796ZM44.0488 17.8V17.4H43.0488V17.8H44.0488ZM43.5488 17.9H45.4488V16.9H43.5488V17.9ZM45.5488 8.36C45.4384 8.36 45.2638 8.38794 45.1203 8.53145C44.9768 8.67495 44.9488 8.84959 44.9488 8.96H45.9488C45.9488 9.00374 45.9376 9.12838 45.8274 9.23855C45.7172 9.34873 45.5926 9.36 45.5488 9.36V8.36ZM44.9488 8.96V15.04H45.9488V8.96H44.9488ZM44.9488 15.04C44.9488 15.1504 44.9768 15.325 45.1203 15.4686C45.2638 15.6121 45.4384 15.64 45.5488 15.64V14.64C45.5926 14.64 45.7172 14.6513 45.8274 14.7614C45.9376 14.8716 45.9488 14.9963 45.9488 15.04H44.9488ZM45.5488 15.64H46.6088V14.64H45.5488V15.64ZM47.1088 15.14V8.86H46.1088V15.14H47.1088ZM46.6088 8.36H45.5488V9.36H46.6088V8.36Z" fill="#8493BA" mask="url(#path-2-outside-1_48_15)"/>
<defs>
<linearGradient id="paint0_linear_48_15" x1="-2.45946" y1="10.5882" x2="28.8108" y2="10.5882" gradientUnits="userSpaceOnUse">
<stop stop-color="#6EE363"/>
<stop offset="1" stop-color="#71D2E8"/>
</linearGradient>
</defs>
</svg>
