<svg width="300" height="522" viewBox="0 0 300 522" fill="none" xmlns="http://www.w3.org/2000/svg">
<path d="M236 14L230.5 1H3.5V521H285.5L290 516C291.5 513.5 294.5 507.6 294.5 504C294.5 500.4 296.311 498.698 297.478 498.698C297.478 495.865 295.3 493.7 292.5 482.5C289.7 478.5 293.333 471.333 294.5 471C295.667 469.5 294.5 465 294.5 457C294.5 446.5 301.5 448.5 298 442.5C295.2 437.7 290.333 437.333 290 437L285.5 425C288.5 422 290.2 420.7 293 417.5C295.8 414.3 296.833 406.667 294.5 407V396C294.5 393 290 387.2 290 384C290 380.8 291.5 378.167 293 377.5V373L283.5 363C285 361 290 358.4 290 356C290 353.6 291.5 342 294.5 337.5C291.5 334.333 285.5 326.5 285.5 320.5V316.5L275 307L281 294L270.5 277L275 270V260.5L270.5 255L263 250.5V245.5L268 234L263 229L261 222.5L257 218.5L263 212.5L261 207L265 202L257 196L263 189L262 183.5L257 178L253 170.5L257 165.5L256 156.5L251 152V143.5L245 135.5C247 132.167 251 124.9 251 122.5V109L245 102.5L247 98L245 90.5L240.5 82.5V67L234.5 59L238 47.5L236 39.5L240.5 34L236 29.5V24.5L230.5 19L236 14Z" fill="white" stroke="white"/>
<path d="M233.5 14.5L228 1.5H1V521.5H283L287.5 516.5C289 514 292 508.1 292 504.5C292 500.9 293.811 499.198 294.978 499.198C294.978 496.365 292.8 494.2 290 483C287.2 479 290.833 471.833 292 471.5C293.167 470 292 465.5 292 457.5C292 447 299 449 295.5 443C292.7 438.2 287.833 437.833 287.5 437.5L283 425.5C286 422.5 287.7 421.2 290.5 418C293.3 414.8 294.333 407.167 292 407.5V396.5C292 393.5 287.5 387.7 287.5 384.5C287.5 381.3 289 378.667 290.5 378V373.5L281 363.5C282.5 361.5 287.5 358.9 287.5 356.5C287.5 354.1 289 342.5 292 338C289 334.833 283 327 283 321V317L272.5 307.5L278.5 294.5L268 277.5L272.5 270.5V261L268 255.5L260.5 251V246L265.5 234.5L260.5 229.5L258.5 223L254.5 219L260.5 213L258.5 207.5L262.5 202.5L254.5 196.5L260.5 189.5L259.5 184L254.5 178.5L250.5 171L254.5 166L253.5 157L248.5 152.5V144L242.5 136C244.5 132.667 248.5 125.4 248.5 123V109.5L242.5 103L244.5 98.5L242.5 91L238 83V67.5L232 59.5L235.5 48L233.5 40L238 34.5L233.5 30V25L228 19.5L233.5 14.5Z" fill="#F0B9B9" stroke="white"/>
</svg>
