<svg width="302" height="524" viewBox="0 0 302 524" fill="none" xmlns="http://www.w3.org/2000/svg">
<path d="M66.3538 509.594L71.9146 522.568L298.912 521.506L296.479 1.51156L14.4822 2.83098L10.0057 7.85198C8.51739 10.359 5.54503 16.2729 5.56187 19.8729C5.57872 23.4729 3.7752 25.1829 2.60856 25.1884C2.62182 28.0217 4.81008 30.1765 7.66244 41.3633C10.4811 45.3502 6.88136 52.5337 5.71627 52.8725C4.55665 54.378 5.74435 58.8725 5.78178 66.8724C5.8309 77.3723 -1.17838 75.405 2.34966 81.3886C5.17207 86.1754 10.0404 86.5193 10.3753 86.8511L14.9314 98.8299C11.9455 101.844 10.2516 103.152 7.46657 106.365C4.68159 109.578 3.68396 117.216 6.01571 116.872L6.06718 127.872C6.08122 130.872 10.6083 136.651 10.6233 139.851C10.6382 143.051 9.15059 145.691 7.65372 146.364L7.67478 150.864L17.2215 160.82C15.7308 162.827 10.7431 165.45 10.7543 167.85C10.7655 170.25 9.3198 181.857 6.34089 186.371C9.35567 189.524 15.3923 197.329 15.4203 203.329L15.439 207.329L25.9834 216.78L20.0443 229.807L30.6237 246.758L26.1565 253.779L26.2009 263.279L30.7266 268.758L38.2476 273.223L38.271 278.223L33.3249 289.746L38.3482 294.723L40.3786 301.213L44.3973 305.194L38.4254 311.222L40.4511 316.713L36.4745 321.732L44.5025 327.694L38.5353 334.722L39.5611 340.217L44.5867 345.694L48.6218 353.175L44.6452 358.194L45.6873 367.189L50.7083 371.666L50.7481 380.165L56.7855 388.137C54.8011 391.48 50.8351 398.765 50.8464 401.165L50.9095 414.665L56.9399 421.137L54.9609 425.646L56.996 433.137L61.5334 441.116L61.6059 456.615L67.6433 464.587L64.1971 476.104L66.2345 484.094L61.7603 489.615L66.2813 494.094L66.3047 499.094L71.8304 504.568L66.3538 509.594Z" fill="white" stroke="white"/>
<path d="M68.8515 509.082L74.4123 522.056L301.41 520.994L298.977 0.999844L16.9799 2.31926L12.5034 7.34026C11.0151 9.84725 8.04271 15.7612 8.05955 19.3612C8.0764 22.9611 6.27289 24.6712 5.10624 24.6767C5.1195 27.51 7.30777 29.6648 10.1601 40.8516C12.9788 44.8384 9.37904 52.022 8.21395 52.3608C7.05433 53.8663 8.24203 58.3608 8.27946 66.3607C8.32858 76.8606 1.3193 74.8933 4.84734 80.8769C7.66975 85.6637 12.5381 86.0076 12.873 86.3394L17.4291 98.3182C14.4431 101.332 12.7492 102.64 9.96425 105.853C7.17927 109.066 6.18164 116.704 8.5134 116.36L8.56486 127.36C8.5789 130.36 13.106 136.139 13.121 139.339C13.1359 142.539 11.6483 145.179 10.1514 145.853L10.1725 150.353L19.7191 160.308C18.2285 162.315 13.2407 164.939 13.252 167.339C13.2632 169.738 11.8175 181.345 8.83857 185.859C11.8534 189.012 17.8899 196.817 17.918 202.817L17.9367 206.817L28.4811 216.268L22.5419 229.296L33.1214 246.246L28.6542 253.267L28.6986 262.767L33.2243 268.246L40.7453 272.711L40.7687 277.711L35.8225 289.234L40.8459 294.211L42.8763 300.701L46.8949 304.683L40.9231 310.711L42.9488 316.201L38.9722 321.22L47.0002 327.182L41.033 334.21L42.0587 339.706L47.0844 345.182L51.1195 352.663L47.1429 357.682L48.185 366.677L53.206 371.154L53.2458 379.654L59.2831 387.626C57.2988 390.968 53.3328 398.253 53.344 400.653L53.4072 414.153L59.4375 420.625L57.4586 425.134L59.4937 432.625L64.0311 440.604L64.1036 456.104L70.141 464.076L66.6948 475.592L68.7322 483.582L64.258 489.103L68.779 493.582L68.8024 498.582L74.3281 504.056L68.8515 509.082Z" fill="#D6DAC8" stroke="transparent"/>
</svg>
